<svg width="81" height="83" viewBox="0 0 81 83" fill="none" xmlns="http://www.w3.org/2000/svg">
<g clip-path="url(#clip0_1089_7819)">
<path d="M40.4487 39.514C39.7435 34.041 34.7351 30.176 29.2621 30.8812C23.7891 31.5865 19.9241 36.5949 20.6293 42.0678C21.3346 47.5408 26.343 51.4058 31.8159 50.7006C37.2889 49.9954 41.1539 44.987 40.4487 39.514Z" fill="#D49100"/>
<path d="M33.0136 49.0631C38.3009 47.4836 41.3068 41.917 39.7273 36.6296C38.1478 31.3423 32.5811 28.3365 27.2938 29.916C22.0065 31.4955 19.0006 37.0621 20.5801 42.3495C22.1596 47.6368 27.7263 50.6426 33.0136 49.0631Z" fill="#FFC60B"/>
<path d="M32.2728 46.583C36.1903 45.4127 38.4174 41.2882 37.2472 37.3706C36.0769 33.4531 31.9523 31.226 28.0348 32.3963C24.1172 33.5666 21.8901 37.6911 23.0604 41.6086C24.2307 45.5262 28.3552 47.7533 32.2728 46.583Z" fill="#E89F00"/>
<path d="M28.317 33.3417C30.117 32.8023 32.0548 32.9679 33.7372 33.8049C35.4197 34.6419 36.7206 36.0875 37.3762 37.8486C37.3411 37.6857 37.3 37.5258 37.2531 37.3687C36.9908 36.4186 36.5415 35.5304 35.9315 34.7562C35.3215 33.982 34.5631 33.3373 33.7007 32.86C32.8384 32.3826 31.8894 32.0822 30.9095 31.9763C29.9296 31.8705 28.9383 31.9612 27.9939 32.2434C27.0495 32.5255 26.1709 32.9933 25.4096 33.6193C24.6484 34.2453 24.0197 35.017 23.5605 35.8892C23.1012 36.7613 22.8207 37.7163 22.7353 38.6983C22.65 39.6802 22.7614 40.6693 23.0632 41.6076C23.1105 41.7657 23.1559 41.9176 23.2235 42.0764C22.8069 40.246 23.1012 38.3257 24.0468 36.7041C24.9924 35.0824 26.5188 33.8806 28.317 33.3417Z" fill="#D49100"/>
<path d="M53.8974 29.4992C59.1847 27.9197 62.1906 22.353 60.6111 17.0657C59.0316 11.7783 53.4649 8.77253 48.1776 10.352C42.8902 11.9315 39.8844 17.4982 41.4639 22.7855C43.0434 28.0728 48.6101 31.0786 53.8974 29.4992Z" fill="#D49100"/>
<path d="M56.952 26.371C61.2324 22.8883 61.8791 16.5951 58.3965 12.3147C54.9139 8.03428 48.6207 7.38754 44.3402 10.8702C40.0598 14.3528 39.4131 20.646 42.8957 24.9264C46.3783 29.2068 52.6715 29.8536 56.952 26.371Z" fill="#FFC60B"/>
<path d="M55.3184 24.3634C58.4899 21.783 58.9691 17.1201 56.3887 13.9486C53.8083 10.7771 49.1455 10.2979 45.974 12.8783C42.8025 15.4587 42.3233 20.1216 44.9037 23.2931C47.4841 26.4646 52.1469 26.9438 55.3184 24.3634Z" fill="#E89F00"/>
<path d="M48.8119 12.4754C50.6111 11.9378 52.5474 12.104 54.2286 12.9404C55.9099 13.7767 57.2105 15.2208 57.8671 16.98C57.8199 16.8219 57.7931 16.6644 57.744 16.5001C57.1507 14.6557 55.8584 13.1172 54.144 12.2145C52.4297 11.3118 50.4299 11.1169 48.5734 11.6714C46.717 12.226 45.1518 13.4859 44.2135 15.181C43.2752 16.8761 43.0385 18.8715 43.5541 20.7391C43.6023 20.9003 43.6468 21.0491 43.7144 21.2078C43.2986 19.3772 43.5937 17.457 44.5401 15.8358C45.4865 14.2145 47.0134 13.0134 48.8119 12.4754Z" fill="#D49100"/>
<path d="M68.6145 28.7091L11.8365 45.6703C11.0191 45.9145 10.2578 46.3173 9.59619 46.8558C8.93454 47.3942 8.38547 48.0578 7.98035 48.8085C7.57522 49.5592 7.32198 50.3824 7.23509 51.231C7.1482 52.0797 7.22936 52.9371 7.47394 53.7544L21.4715 100.612C21.2778 99.9622 21.3425 99.2632 21.652 98.6604C21.9615 98.0576 22.4919 97.5977 23.1324 97.3767L83.7238 79.2763C85.374 78.7834 86.7608 77.655 87.5791 76.1396C88.3974 74.6241 88.5802 72.8456 88.0872 71.1954L76.6995 33.0747C76.2062 31.4236 75.0773 30.0361 73.5611 29.2174C72.0449 28.3987 70.2655 28.2158 68.6145 28.7091Z" fill="#00AEEF"/>
<path d="M79.3162 77.6349L75.2548 78.8482C75.1643 78.882 75.0678 78.8969 74.9713 78.8919C74.8747 78.887 74.7803 78.8622 74.6937 78.8192C74.6072 78.7762 74.5304 78.7158 74.4681 78.6419C74.4059 78.568 74.3595 78.482 74.3318 78.3894C74.3041 78.2968 74.2958 78.1995 74.3073 78.1035C74.3188 78.0076 74.3499 77.915 74.3987 77.8315C74.4475 77.7481 74.5129 77.6756 74.5908 77.6185C74.6688 77.5614 74.7577 77.5209 74.852 77.4995L78.8823 76.2956C79.0627 76.2408 79.2574 76.2594 79.4241 76.3475C79.5908 76.4356 79.716 76.5859 79.7724 76.7658C79.8002 76.8528 79.8104 76.9445 79.8025 77.0355C79.7945 77.1265 79.7686 77.215 79.7261 77.2958C79.6837 77.3767 79.6256 77.4483 79.5552 77.5065C79.4848 77.5647 79.4036 77.6084 79.3162 77.6349ZM71.1935 80.0614L67.1601 81.2663C67.0695 81.3002 66.973 81.3151 66.8765 81.3101C66.78 81.3051 66.6855 81.2803 66.599 81.2373C66.5124 81.1943 66.4356 81.134 66.3734 81.06C66.3111 80.9861 66.2647 80.9002 66.237 80.8075C66.2094 80.7149 66.201 80.6176 66.2125 80.5217C66.224 80.4257 66.2552 80.3331 66.3039 80.2497C66.3527 80.1662 66.4181 80.0937 66.4961 80.0366C66.5741 79.9795 66.6629 79.939 66.7572 79.9177L70.803 78.7091C70.8936 78.6752 70.9901 78.6603 71.0866 78.6653C71.1831 78.6703 71.2776 78.695 71.3641 78.7381C71.4507 78.7811 71.5275 78.8414 71.5897 78.9153C71.652 78.9893 71.6984 79.0752 71.7261 79.1678C71.7537 79.2604 71.7621 79.3577 71.7506 79.4537C71.7391 79.5497 71.7079 79.6422 71.6592 79.7257C71.6104 79.8091 71.545 79.8816 71.467 79.9388C71.389 79.9959 71.3002 80.0364 71.2059 80.0577L71.1935 80.0614ZM63.0987 82.4795L59.0684 83.6835C58.9779 83.7174 58.8814 83.7323 58.7849 83.7273C58.6883 83.7223 58.5939 83.6975 58.5073 83.6545C58.4208 83.6115 58.344 83.5512 58.2817 83.4772C58.2194 83.4033 58.173 83.3174 58.1454 83.2248C58.1177 83.1322 58.1094 83.0348 58.1209 82.9389C58.1324 82.8429 58.1635 82.7503 58.2123 82.6669C58.2611 82.5835 58.3265 82.5109 58.4044 82.4538C58.4824 82.3967 58.5713 82.3562 58.6655 82.3349L62.6959 81.1309C62.7864 81.097 62.8829 81.0821 62.9794 81.0871C63.076 81.0921 63.1704 81.1169 63.257 81.1599C63.3435 81.2029 63.4203 81.2633 63.4826 81.3372C63.5448 81.4111 63.5912 81.497 63.6189 81.5897C63.6466 81.6823 63.6549 81.7796 63.6434 81.8755C63.6319 81.9715 63.6008 82.0641 63.552 82.1475C63.5032 82.231 63.4378 82.3035 63.3599 82.3606C63.2819 82.4177 63.193 82.4582 63.0987 82.4795ZM55.004 84.8977L50.9706 86.1026C50.88 86.1364 50.7835 86.1513 50.687 86.1464C50.5905 86.1414 50.496 86.1166 50.4095 86.0736C50.3229 86.0306 50.2461 85.9702 50.1839 85.8963C50.1216 85.8224 50.0752 85.7364 50.0475 85.6438C50.0199 85.5512 50.0115 85.4539 50.023 85.3579C50.0345 85.262 50.0656 85.1694 50.1144 85.086C50.1632 85.0025 50.2286 84.93 50.3066 84.8729C50.3845 84.8158 50.4734 84.7753 50.5677 84.754L54.6135 83.5453C54.704 83.5115 54.8006 83.4966 54.8971 83.5016C54.9936 83.5065 55.0881 83.5313 55.1746 83.5743C55.2612 83.6173 55.338 83.6777 55.4002 83.7516C55.4625 83.8255 55.5089 83.9115 55.5366 84.0041C55.5642 84.0967 55.5726 84.194 55.5611 84.29C55.5495 84.3859 55.5184 84.4785 55.4697 84.562C55.4209 84.6454 55.3555 84.7179 55.2775 84.775C55.1995 84.8322 55.1107 84.8726 55.0164 84.894L55.004 84.8977ZM46.9092 87.3158L42.8758 88.5207C42.7853 88.5546 42.6888 88.5695 42.5922 88.5645C42.4957 88.5595 42.4012 88.5347 42.3147 88.4917C42.2281 88.4487 42.1514 88.3884 42.0891 88.3144C42.0268 88.2405 41.9804 88.1546 41.9528 88.062C41.9251 87.9694 41.9168 87.8721 41.9283 87.7761C41.9398 87.6801 41.9709 87.5875 42.0197 87.5041C42.0684 87.4207 42.1338 87.3481 42.2118 87.291C42.2898 87.2339 42.3787 87.1934 42.4729 87.1721L46.5188 85.9635C46.6093 85.9296 46.7058 85.9147 46.8023 85.9197C46.8989 85.9247 46.9933 85.9495 47.0799 85.9925C47.1664 86.0355 47.2432 86.0958 47.3055 86.1698C47.3677 86.2437 47.4141 86.3296 47.4418 86.4222C47.4695 86.5148 47.4778 86.6121 47.4663 86.7081C47.4548 86.8041 47.4237 86.8967 47.3749 86.9801C47.3261 87.0635 47.2607 87.1361 47.1828 87.1932C47.1048 87.2503 47.0159 87.2908 46.9216 87.3121L46.9092 87.3158ZM38.8269 89.7302L34.7811 90.9388C34.6905 90.9727 34.594 90.9876 34.4975 90.9826C34.401 90.9777 34.3065 90.9529 34.2199 90.9099C34.1334 90.8668 34.0566 90.8065 33.9943 90.7326C33.9321 90.6586 33.8857 90.5727 33.858 90.4801C33.8303 90.3875 33.822 90.2902 33.8335 90.1942C33.845 90.0983 33.8761 90.0057 33.9249 89.9222C33.9737 89.8388 34.0391 89.7663 34.1171 89.7092C34.195 89.652 34.2839 89.6116 34.3782 89.5902L38.424 88.3816C38.5145 88.3478 38.6111 88.3329 38.7076 88.3378C38.8041 88.3428 38.8986 88.3676 38.9851 88.4106C39.0717 88.4536 39.1485 88.514 39.2107 88.5879C39.273 88.6618 39.3194 88.7478 39.347 88.8404C39.3747 88.933 39.383 89.0303 39.3715 89.1262C39.36 89.2222 39.3289 89.3148 39.2802 89.3982C39.2314 89.4817 39.166 89.5542 39.088 89.6113C39.01 89.6684 38.9211 89.7089 38.8269 89.7302ZM30.7321 92.1484L26.7018 93.3524C26.6113 93.3862 26.5148 93.4011 26.4182 93.3961C26.3217 93.3912 26.2272 93.3664 26.1407 93.3234C26.0541 93.2804 25.9773 93.22 25.9151 93.1461C25.8528 93.0722 25.8064 92.9862 25.7788 92.8936C25.7511 92.801 25.7428 92.7037 25.7543 92.6077C25.7658 92.5118 25.7969 92.4192 25.8457 92.3357C25.8944 92.2523 25.9598 92.1798 26.0378 92.1227C26.1158 92.0656 26.2047 92.0251 26.2989 92.0037L30.3293 90.7998C30.4198 90.7659 30.5163 90.751 30.6128 90.756C30.7093 90.761 30.8038 90.7857 30.8904 90.8287C30.9769 90.8718 31.0537 90.9321 31.116 91.006C31.1782 91.08 31.2246 91.1659 31.2523 91.2585C31.28 91.3511 31.2883 91.4484 31.2768 91.5444C31.2653 91.6404 31.2342 91.7329 31.1854 91.8164C31.1366 91.8998 31.0712 91.9723 30.9932 92.0295C30.9153 92.0866 30.8264 92.127 30.7321 92.1484ZM82.7559 75.2566C82.6133 75.2994 82.4608 75.2961 82.3203 75.247C82.1797 75.1979 82.0583 75.1056 81.9734 74.9832C81.8885 74.8609 81.8445 74.7149 81.8477 74.566C81.8509 74.4172 81.9011 74.2732 81.9911 74.1546C82.7589 73.1418 83.1893 71.9136 83.2215 70.6431C83.2191 70.5475 83.2362 70.4525 83.2716 70.3637C83.3071 70.2749 83.3603 70.1943 83.4279 70.1267C83.4954 70.0591 83.5761 70.0059 83.6649 69.9704C83.7536 69.9349 83.8487 69.9179 83.9442 69.9203C84.0398 69.9226 84.1339 69.9444 84.2208 69.9843C84.3077 70.0241 84.3856 70.0813 84.4497 70.1521C84.5138 70.223 84.5629 70.3062 84.5939 70.3967C84.6249 70.4871 84.6372 70.5829 84.6301 70.6782C84.5903 72.2446 84.06 73.7589 83.1138 75.0078C83.0201 75.1306 82.8891 75.2195 82.7404 75.2612L82.7559 75.2566ZM83.241 67.2266C83.0623 67.28 82.8697 67.2604 82.7054 67.1722C82.5411 67.0839 82.4184 66.9342 82.3642 66.7557L81.1574 62.7161C81.1039 62.5369 81.1237 62.3437 81.2126 62.1791C81.3015 62.0145 81.4521 61.8919 81.6314 61.8384C81.8106 61.7848 82.0038 61.8047 82.1684 61.8935C82.333 61.9824 82.4556 62.1331 82.5091 62.3123L83.7187 66.3612C83.7451 66.4512 83.7534 66.5455 83.7429 66.6386C83.7325 66.7318 83.7036 66.8219 83.658 66.9038C83.6123 66.9856 83.5508 67.0576 83.477 67.1154C83.4032 67.1732 83.3187 67.2158 83.2283 67.2405L83.241 67.2266ZM75.9866 42.9423C75.8079 42.9957 75.6153 42.9761 75.451 42.8879C75.2866 42.7997 75.164 42.6499 75.1098 42.4715L73.903 38.4318C73.8495 38.2526 73.8693 38.0594 73.9582 37.8948C74.0471 37.7302 74.1977 37.6076 74.377 37.5541C74.5562 37.5005 74.7494 37.5204 74.914 37.6093C75.0786 37.6982 75.2012 37.8488 75.2547 38.028L76.4642 42.077C76.4907 42.1669 76.4989 42.2612 76.4885 42.3543C76.4781 42.4475 76.4492 42.5376 76.4036 42.6195C76.3579 42.7014 76.2964 42.7733 76.2226 42.8311C76.1488 42.889 76.0643 42.9315 75.9739 42.9562L75.9866 42.9423ZM72.6893 35.2959C72.5729 35.3313 72.4494 35.3359 72.3307 35.3092C72.212 35.2825 72.1023 35.2254 72.0123 35.1436C71.0701 34.2915 69.885 33.7552 68.623 33.6099C68.4488 33.5762 68.2937 33.4781 68.1886 33.3352C68.0835 33.1923 68.0362 33.0151 68.0559 32.8388C68.0757 32.6625 68.1611 32.5001 68.2952 32.384C68.4293 32.2679 68.6023 32.2066 68.7796 32.2123C70.3365 32.3916 71.7985 33.0529 72.9613 34.1037C73.0541 34.1872 73.123 34.294 73.1608 34.413C73.1986 34.5321 73.2039 34.659 73.1763 34.7808C73.1487 34.9026 73.0891 35.0149 73.0037 35.1059C72.9182 35.197 72.81 35.2637 72.6902 35.299L72.6893 35.2959ZM64.7653 34.2726L60.7195 35.4812C60.6289 35.5151 60.5324 35.53 60.4359 35.525C60.3394 35.52 60.2449 35.4953 60.1584 35.4522C60.0718 35.4092 59.995 35.3489 59.9328 35.275C59.8705 35.201 59.8241 35.1151 59.7964 35.0225C59.7688 34.9299 59.7604 34.8326 59.7719 34.7366C59.7834 34.6406 59.8146 34.5481 59.8633 34.4646C59.9121 34.3812 59.9775 34.3087 60.0555 34.2515C60.1335 34.1944 60.2223 34.1539 60.3166 34.1326L64.3624 32.924C64.453 32.8901 64.5495 32.8752 64.646 32.8802C64.7425 32.8852 64.837 32.91 64.9235 32.953C65.0101 32.996 65.0869 33.0563 65.1491 33.1303C65.2114 33.2042 65.2578 33.2901 65.2855 33.3827C65.3131 33.4754 65.3215 33.5727 65.31 33.6686C65.2985 33.7646 65.2674 33.8572 65.2186 33.9406C65.1698 34.0241 65.1044 34.0966 65.0264 34.1537C64.9484 34.2108 64.8596 34.2513 64.7653 34.2726ZM56.6705 36.6908L52.6402 37.8947C52.5497 37.9286 52.4532 37.9435 52.3566 37.9385C52.2601 37.9335 52.1657 37.9088 52.0791 37.8658C51.9926 37.8227 51.9158 37.7624 51.8535 37.6885C51.7912 37.6145 51.7448 37.5286 51.7172 37.436C51.6895 37.3434 51.6812 37.2461 51.6927 37.1501C51.7042 37.0541 51.7353 36.9616 51.7841 36.8781C51.8328 36.7947 51.8983 36.7222 51.9762 36.665C52.0542 36.6079 52.1431 36.5675 52.2373 36.5461L56.2677 35.3421C56.3582 35.3083 56.4547 35.2934 56.5512 35.2984C56.6478 35.3033 56.7422 35.3281 56.8288 35.3711C56.9153 35.4141 56.9921 35.4745 57.0544 35.5484C57.1166 35.6223 57.163 35.7083 57.1907 35.8009C57.2184 35.8935 57.2267 35.9908 57.2152 36.0868C57.2037 36.1827 57.1726 36.2753 57.1238 36.3588C57.075 36.4422 57.0096 36.5147 56.9317 36.5718C56.8537 36.6289 56.7648 36.6694 56.6705 36.6908ZM48.5758 39.1089L44.53 40.3175C44.4394 40.3514 44.3429 40.3663 44.2464 40.3613C44.1499 40.3563 44.0554 40.3315 43.9688 40.2885C43.8823 40.2455 43.8055 40.1852 43.7432 40.1112C43.681 40.0373 43.6346 39.9514 43.6069 39.8588C43.5793 39.7662 43.5709 39.6688 43.5824 39.5729C43.5939 39.4769 43.625 39.3843 43.6738 39.3009C43.7226 39.2175 43.788 39.1449 43.866 39.0878C43.9439 39.0307 44.0328 38.9902 44.1271 38.9689L48.1729 37.7603C48.2634 37.7264 48.36 37.7115 48.4565 37.7165C48.553 37.7215 48.6475 37.7462 48.734 37.7893C48.8206 37.8323 48.8974 37.8926 48.9596 37.9666C49.0219 38.0405 49.0683 38.1264 49.096 38.219C49.1236 38.3116 49.132 38.4089 49.1204 38.5049C49.1089 38.6009 49.0778 38.6934 49.0291 38.7769C48.9803 38.8603 48.9149 38.9329 48.8369 38.99C48.7589 39.0471 48.6701 39.0876 48.5758 39.1089ZM40.481 41.527L36.4507 42.731C36.3602 42.7649 36.2637 42.7798 36.1671 42.7748C36.0706 42.7698 35.9761 42.745 35.8896 42.702C35.803 42.659 35.7263 42.5987 35.664 42.5247C35.6017 42.4508 35.5553 42.3649 35.5277 42.2723C35.5 42.1797 35.4917 42.0824 35.5032 41.9864C35.5147 41.8904 35.5458 41.7978 35.5946 41.7144C35.6433 41.631 35.7087 41.5584 35.7867 41.5013C35.8647 41.4442 35.9536 41.4037 36.0478 41.3824L40.0782 40.1784C40.1687 40.1446 40.2652 40.1296 40.3617 40.1346C40.4582 40.1396 40.5527 40.1644 40.6393 40.2074C40.7258 40.2504 40.8026 40.3108 40.8649 40.3847C40.9271 40.4586 40.9735 40.5446 41.0012 40.6372C41.0289 40.7298 41.0372 40.8271 41.0257 40.923C41.0142 41.019 40.9831 41.1116 40.9343 41.195C40.8855 41.2785 40.8201 41.351 40.7421 41.4081C40.6642 41.4652 40.5753 41.5057 40.481 41.527ZM32.3863 43.9452L28.356 45.1491C28.2654 45.183 28.1689 45.1979 28.0724 45.1929C27.9759 45.188 27.8814 45.1632 27.7948 45.1202C27.7083 45.0772 27.6315 45.0168 27.5692 44.9429C27.507 44.869 27.4606 44.783 27.4329 44.6904C27.4052 44.5978 27.3969 44.5005 27.4084 44.4045C27.4199 44.3086 27.451 44.216 27.4998 44.1325C27.5486 44.0491 27.614 43.9766 27.692 43.9195C27.7699 43.8623 27.8588 43.8219 27.9531 43.8005L31.9834 42.5966C32.0739 42.5627 32.1705 42.5478 32.267 42.5528C32.3635 42.5578 32.458 42.5825 32.5445 42.6255C32.6311 42.6686 32.7079 42.7289 32.7701 42.8028C32.8324 42.8768 32.8788 42.9627 32.9064 43.0553C32.9341 43.1479 32.9424 43.2452 32.9309 43.3412C32.9194 43.4371 32.8883 43.5297 32.8395 43.6132C32.7908 43.6966 32.7254 43.7691 32.6474 43.8262C32.5694 43.8834 32.4805 43.9238 32.3863 43.9452ZM24.2915 46.3633L20.2612 47.5673C20.1707 47.6012 20.0742 47.6161 19.9776 47.6111C19.8811 47.6061 19.7866 47.5813 19.7001 47.5383C19.6135 47.4953 19.5367 47.4349 19.4745 47.361C19.4122 47.2871 19.3658 47.2012 19.3382 47.1085C19.3105 47.0159 19.3022 46.9186 19.3137 46.8227C19.3252 46.7267 19.3563 46.6341 19.4051 46.5507C19.4538 46.4672 19.5192 46.3947 19.5972 46.3376C19.6752 46.2805 19.7641 46.24 19.8583 46.2187L23.8887 45.0147C23.9792 44.9808 24.0757 44.9659 24.1722 44.9709C24.2687 44.9759 24.3632 45.0007 24.4498 45.0437C24.5363 45.0867 24.6131 45.147 24.6754 45.221C24.7376 45.2949 24.784 45.3808 24.8117 45.4734C24.8394 45.5661 24.8477 45.6634 24.8362 45.7593C24.8247 45.8553 24.7936 45.9479 24.7448 46.0313C24.696 46.1147 24.6306 46.1873 24.5526 46.2444C24.4747 46.3015 24.3858 46.342 24.2915 46.3633ZM16.1968 48.7814L12.1664 49.9854C12.0759 50.0193 11.9794 50.0342 11.8829 50.0292C11.7863 50.0242 11.6919 49.9995 11.6053 49.9564C11.5188 49.9134 11.442 49.8531 11.3797 49.7792C11.3175 49.7052 11.2711 49.6193 11.2434 49.5267C11.2157 49.4341 11.2074 49.3368 11.2189 49.2408C11.2304 49.1448 11.2615 49.0523 11.3103 48.9688C11.3591 48.8854 11.4245 48.8129 11.5024 48.7557C11.5804 48.6986 11.6693 48.6581 11.7636 48.6368L15.7939 47.4328C15.8844 47.399 15.9809 47.3841 16.0775 47.3891C16.174 47.394 16.2685 47.4188 16.355 47.4618C16.4416 47.5048 16.5183 47.5652 16.5806 47.6391C16.6429 47.713 16.6893 47.799 16.7169 47.8916C16.7446 47.9842 16.7529 48.0815 16.7414 48.1775C16.7299 48.2734 16.6988 48.366 16.65 48.4494C16.6013 48.5329 16.5359 48.6054 16.4579 48.6625C16.3799 48.7196 16.291 48.7601 16.1968 48.7814Z" fill="#8CE0FF"/>
<path d="M69.3954 48.7207L81.8894 44.9884C82.6402 44.7642 83.4492 44.8473 84.1386 45.2195C84.828 45.5918 85.3413 46.2227 85.5655 46.9734L87.8753 54.7054C88.0996 55.4561 88.0164 56.2652 87.6442 56.9546C87.2719 57.644 86.6411 58.1572 85.8904 58.3815L73.3963 62.1138C71.9985 62.5314 70.4921 62.3766 69.2084 61.6834C67.9248 60.9903 66.969 59.8156 66.5515 58.4178L65.7059 55.5873C65.2883 54.1895 65.4432 52.6831 66.1363 51.3994C66.8294 50.1157 68.0041 49.16 69.4019 48.7424L69.3954 48.7207Z" fill="#0091C7"/>
<path d="M75.7055 57.3074C77.4554 56.7847 78.4502 54.9423 77.9275 53.1924C77.4047 51.4425 75.5624 50.4477 73.8125 50.9705C72.0626 51.4932 71.0678 53.3356 71.5906 55.0855C72.1133 56.8353 73.9556 57.8301 75.7055 57.3074Z" fill="#0089BD"/>
<path d="M77.8407 53.0422C77.6051 51.2311 75.946 49.954 74.1349 50.1896C72.3239 50.4252 71.0468 52.0843 71.2824 53.8954C71.518 55.7064 73.1771 56.9836 74.9882 56.7479C76.7992 56.5123 78.0763 54.8532 77.8407 53.0422Z" fill="#00AEEF"/>
<path d="M83.7219 79.2704L23.1306 97.3708C22.7685 97.496 22.4384 97.6995 22.1639 97.9668C22.0957 98.0314 22.0317 98.1002 21.9721 98.1727L21.9392 98.2095C21.8705 98.2943 21.8081 98.384 21.7526 98.478L21.7278 98.5192C21.6777 98.6031 21.6326 98.6899 21.5927 98.7791L21.5697 98.8265C21.5275 98.9277 21.4908 99.0311 21.4596 99.1363L21.4512 99.1759C21.4247 99.2694 21.4046 99.3645 21.3911 99.4607L21.3817 99.531C21.3661 99.6396 21.3582 99.7492 21.3581 99.8589C21.3581 99.8589 21.3636 99.8775 21.3664 99.8868C21.3671 99.9874 21.3746 100.088 21.3887 100.187C21.397 100.215 21.4053 100.243 21.4127 100.268C21.4316 100.38 21.4568 100.491 21.4883 100.6C21.6848 101.267 22.1375 101.829 22.7473 102.162C23.3572 102.496 24.0744 102.574 24.7419 102.38L81.6315 85.3857C84.2397 84.6066 86.4315 82.8233 87.7248 80.4281C89.0181 78.033 89.3069 75.2221 88.5278 72.614L88.1009 71.1848C88.3454 72.0032 88.426 72.8618 88.3381 73.7114C88.2503 74.5611 87.9957 75.385 87.5889 76.1361C87.1822 76.8872 86.6312 77.5506 85.9676 78.0884C85.3041 78.6263 84.5409 79.0279 83.7219 79.2704Z" fill="#0091C7"/>
</g>
<defs>
<clipPath id="clip0_1089_7819">
<rect width="82.8321" height="82.8321" fill="white" transform="translate(-4.39258 24.6345) rotate(-16.6324)"/>
</clipPath>
</defs>
</svg>
