<svg width="70.000000" height="70.000000" viewBox="0 0 70 70" fill="none" xmlns="http://www.w3.org/2000/svg" xmlns:xlink="http://www.w3.org/1999/xlink">
	<desc>
			Created with Pixso.
	</desc>
	<defs>
		<clipPath id="clip1089_7451">
			<rect id="user / user" width="56.000000" height="56.000000" transform="translate(7.000000 12.250000)" fill="white" fill-opacity="0"/>
		</clipPath>
	</defs>
	<circle id="Ellipse 162" cx="35.000000" cy="35.000000" r="35.000000" fill="#3F51B5" fill-opacity="1.000000"/>
	<circle id="Ellipse 163" cx="35.000000" cy="35.000000" r="32.000000" fill="#FFFFFF" fill-opacity="1.000000"/>
	<mask id="mask1089_7449" mask-type="alpha" maskUnits="userSpaceOnUse" x="7.000000" y="7.000000" width="56.000000" height="56.000000">
		<circle id="Ellipse 164" cx="35.000000" cy="35.000000" r="28.000000" fill="#FFFFFF" fill-opacity="1.000000"/>
	</mask>
	<g mask="url(#mask1089_7449)">
		<g clip-path="url(#clip1089_7451)">
			<path id="coolicon" d="M35 19.25C28.5566 19.25 23.3333 24.4734 23.3333 30.9166C23.3333 37.3601 28.5566 42.5833 35 42.5833C41.4434 42.5833 46.6665 37.3601 46.6665 30.9166C46.6665 24.4734 41.4434 19.25 35 19.25ZM42 30.9166C42 34.7827 38.866 37.9167 35 37.9167C31.134 37.9167 28 34.7827 28 30.9166C28 27.0507 31.134 23.9166 35 23.9166C38.866 23.9166 42 27.0507 42 30.9166ZM16.3333 63.5833C16.3333 58.6326 18.2998 53.8848 21.8005 50.384C25.3013 46.8833 30.0493 44.9167 35 44.9167C39.9507 44.9167 44.6985 46.8833 48.1992 50.384C51.7 53.8848 53.6665 58.6326 53.6665 63.5833L49 63.5833C49 59.8704 47.5249 56.3093 44.8994 53.6838C42.2739 51.0583 38.7129 49.5833 35 49.5833C31.2869 49.5833 27.7258 51.0583 25.1003 53.6838C22.4749 56.3093 21 59.8704 21 63.5833L16.3333 63.5833Z" fill="#3F51B5" fill-opacity="1.000000" fill-rule="evenodd"/>
		</g>
	</g>
</svg>
